<svg id="visual" viewBox="0 0 900 600" width="900" height="600" xmlns="http://www.w3.org/2000/svg" xmlns:xlink="http://www.w3.org/1999/xlink" version="1.1"><path d="M0 139L90 139L90 127L180 127L180 145L270 145L270 121L360 121L360 145L450 145L450 133L540 133L540 133L630 133L630 133L720 133L720 67L810 67L810 103L900 103L900 151L900 0L900 0L810 0L810 0L720 0L720 0L630 0L630 0L540 0L540 0L450 0L450 0L360 0L360 0L270 0L270 0L180 0L180 0L90 0L90 0L0 0Z" fill="#fa6969"></path><path d="M0 205L90 205L90 193L180 193L180 199L270 199L270 217L360 217L360 247L450 247L450 181L540 181L540 211L630 211L630 211L720 211L720 139L810 139L810 187L900 187L900 241L900 149L900 101L810 101L810 65L720 65L720 131L630 131L630 131L540 131L540 131L450 131L450 143L360 143L360 119L270 119L270 143L180 143L180 125L90 125L90 137L0 137Z" fill="#e85857"></path><path d="M0 319L90 319L90 277L180 277L180 307L270 307L270 265L360 265L360 301L450 301L450 283L540 283L540 301L630 301L630 331L720 331L720 235L810 235L810 283L900 283L900 325L900 239L900 185L810 185L810 137L720 137L720 209L630 209L630 209L540 209L540 179L450 179L450 245L360 245L360 215L270 215L270 197L180 197L180 191L90 191L90 203L0 203Z" fill="#d54745"></path><path d="M0 463L90 463L90 439L180 439L180 457L270 457L270 511L360 511L360 463L450 463L450 385L540 385L540 397L630 397L630 499L720 499L720 469L810 469L810 403L900 403L900 523L900 323L900 281L810 281L810 233L720 233L720 329L630 329L630 299L540 299L540 281L450 281L450 299L360 299L360 263L270 263L270 305L180 305L180 275L90 275L90 317L0 317Z" fill="#c33634"></path><path d="M0 601L90 601L90 601L180 601L180 601L270 601L270 601L360 601L360 601L450 601L450 601L540 601L540 601L630 601L630 601L720 601L720 601L810 601L810 601L900 601L900 601L900 521L900 401L810 401L810 467L720 467L720 497L630 497L630 395L540 395L540 383L450 383L450 461L360 461L360 509L270 509L270 455L180 455L180 437L90 437L90 461L0 461Z" fill="#b02323"></path></svg>